<svg xmlns="http://www.w3.org/2000/svg" xmlns:xlink="http://www.w3.org/1999/xlink" width="500" zoomAndPan="magnify" viewBox="0 0 375 374.999991" height="500" preserveAspectRatio="xMidYMid meet" version="1.0"><defs><g/></defs><path stroke-linecap="butt" transform="matrix(0, -0.75, 0.75, 0, 187.120466, 259.031731)" fill="none" stroke-linejoin="miter" d="M 0.00064132 0.500837 L 264.12045 0.500837 " stroke="#1fa8cf" stroke-width="1" stroke-opacity="1" stroke-miterlimit="4"/><g fill="#1fa8cf" fill-opacity="1"><g transform="translate(78.129155, 203.068894)"><g><path d="M 72.828125 -101.875 C 72.828125 -103.96875 72.488281 -106.046875 71.8125 -108.109375 C 71.132812 -110.179688 70.160156 -111.664062 68.890625 -112.5625 L 80.03125 -112.5625 C 81.082031 -111.582031 81.90625 -110.117188 82.5 -108.171875 C 83.101562 -106.222656 83.40625 -104.195312 83.40625 -102.09375 C 83.40625 -97.144531 82.429688 -92.773438 80.484375 -88.984375 C 78.535156 -85.191406 75.925781 -81.890625 72.65625 -79.078125 C 69.394531 -76.265625 65.832031 -73.820312 61.96875 -71.75 C 58.101562 -69.6875 54.238281 -67.90625 50.375 -66.40625 C 46.507812 -64.90625 42.941406 -63.59375 39.671875 -62.46875 C 36.410156 -61.34375 33.800781 -60.289062 31.84375 -59.3125 C 29.894531 -58.34375 28.921875 -57.332031 28.921875 -56.28125 C 28.921875 -55.007812 29.632812 -54.015625 31.0625 -53.296875 C 32.488281 -52.585938 34.382812 -51.910156 36.75 -51.265625 C 39.113281 -50.628906 41.664062 -49.804688 44.40625 -48.796875 C 47.144531 -47.785156 49.882812 -46.335938 52.625 -44.453125 C 55.363281 -42.578125 57.820312 -40.03125 60 -36.8125 C 62.625 -32.90625 65.265625 -28.847656 67.921875 -24.640625 C 70.585938 -20.441406 73.328125 -16.578125 76.140625 -13.046875 C 78.960938 -9.523438 81.835938 -6.65625 84.765625 -4.4375 C 87.691406 -2.226562 90.765625 -1.125 93.984375 -1.125 L 93.984375 0 L 76.765625 0 C 75.492188 0 74.238281 -0.523438 73 -1.578125 C 71.757812 -2.628906 70.238281 -4.410156 68.4375 -6.921875 C 66.632812 -9.429688 64.328125 -12.863281 61.515625 -17.21875 C 58.703125 -21.570312 55.082031 -27.085938 50.65625 -33.765625 C 48.175781 -37.515625 45.789062 -40.492188 43.5 -42.703125 C 41.21875 -44.921875 39.117188 -46.664062 37.203125 -47.9375 C 35.285156 -49.21875 33.632812 -50.234375 32.25 -50.984375 C 30.863281 -51.734375 29.773438 -52.484375 28.984375 -53.234375 C 28.191406 -53.992188 27.796875 -55.007812 27.796875 -56.28125 C 27.796875 -57.707031 28.601562 -59.054688 30.21875 -60.328125 C 31.832031 -61.609375 33.988281 -62.90625 36.6875 -64.21875 C 39.394531 -65.53125 42.34375 -66.972656 45.53125 -68.546875 C 48.71875 -70.128906 51.90625 -71.910156 55.09375 -73.890625 C 58.289062 -75.878906 61.238281 -78.1875 63.9375 -80.8125 C 66.632812 -83.445312 68.789062 -86.488281 70.40625 -89.9375 C 72.019531 -93.382812 72.828125 -97.363281 72.828125 -101.875 Z M 3.375 0 L 3.375 -1.125 C 6.601562 -1.125 8.945312 -2.097656 10.40625 -4.046875 C 11.875 -6.003906 12.796875 -9.195312 13.171875 -13.625 C 13.546875 -18.050781 13.734375 -23.941406 13.734375 -31.296875 L 13.734375 -81.265625 C 13.734375 -88.691406 13.546875 -94.597656 13.171875 -98.984375 C 12.796875 -103.378906 11.875 -106.550781 10.40625 -108.5 C 8.945312 -110.457031 6.601562 -111.4375 3.375 -111.4375 L 3.375 -112.5625 L 33.65625 -112.5625 L 33.65625 -111.4375 C 30.425781 -111.4375 28.078125 -110.457031 26.609375 -108.5 C 25.148438 -106.550781 24.234375 -103.378906 23.859375 -98.984375 C 23.484375 -94.597656 23.296875 -88.691406 23.296875 -81.265625 L 23.296875 -31.296875 C 23.296875 -23.941406 23.484375 -18.050781 23.859375 -13.625 C 24.234375 -9.195312 25.148438 -6.003906 26.609375 -4.046875 C 28.078125 -2.097656 30.425781 -1.125 33.65625 -1.125 L 33.65625 0 Z M 3.375 0 "/></g></g></g><g fill="#1fa8cf" fill-opacity="1"><g transform="translate(206.215659, 203.068894)"><g><path d="M 82.390625 0 L 3.375 0 L 73.84375 -111.4375 L 41.765625 -111.4375 C 35.304688 -111.4375 29.5625 -110.816406 24.53125 -109.578125 C 19.507812 -108.335938 15.570312 -106.703125 12.71875 -104.671875 C 9.863281 -102.648438 8.4375 -100.363281 8.4375 -97.8125 L 8.4375 -97.359375 L 7.3125 -97.359375 L 7.3125 -112.5625 L 85.4375 -112.5625 L 14.96875 -1.125 L 31.0625 -1.125 C 32.863281 -1.125 35.320312 -1.179688 38.4375 -1.296875 C 41.550781 -1.410156 45.003906 -1.65625 48.796875 -2.03125 C 52.585938 -2.40625 56.375 -2.984375 60.15625 -3.765625 C 63.945312 -4.554688 67.4375 -5.585938 70.625 -6.859375 C 73.820312 -8.140625 76.394531 -9.734375 78.34375 -11.640625 C 80.289062 -13.554688 81.265625 -15.867188 81.265625 -18.578125 L 82.390625 -18.578125 Z M 82.390625 0 "/></g></g></g><g fill="#1fa8cf" fill-opacity="1"><g transform="translate(98.785862, 288.157392)"><g><path d="M 25.296875 -16.46875 L 19.75 0 L 17.90625 0 L 13.078125 -14.046875 L 8.234375 0 L 6.421875 0 L 0.875 -16.46875 L 2.65625 -16.46875 L 7.40625 -2.3125 L 12.328125 -16.46875 L 13.953125 -16.46875 L 18.796875 -2.234375 L 23.625 -16.46875 Z M 25.296875 -16.46875 "/></g></g></g><g fill="#1fa8cf" fill-opacity="1"><g transform="translate(132.421716, 288.157392)"><g><path d="M 14.328125 -1.5 L 14.328125 0 L 2.6875 0 L 2.6875 -16.46875 L 13.984375 -16.46875 L 13.984375 -14.96875 L 4.421875 -14.96875 L 4.421875 -9.109375 L 12.9375 -9.109375 L 12.9375 -7.625 L 4.421875 -7.625 L 4.421875 -1.5 Z M 14.328125 -1.5 "/></g></g></g><g fill="#1fa8cf" fill-opacity="1"><g transform="translate(155.661918, 288.157392)"><g><path d="M 13.0625 -8.5 C 14.144531 -8.257812 14.976562 -7.789062 15.5625 -7.09375 C 16.15625 -6.394531 16.453125 -5.5 16.453125 -4.40625 C 16.453125 -2.988281 15.925781 -1.898438 14.875 -1.140625 C 13.832031 -0.378906 12.296875 0 10.265625 0 L 2.6875 0 L 2.6875 -16.46875 L 9.78125 -16.46875 C 11.625 -16.46875 13.050781 -16.097656 14.0625 -15.359375 C 15.070312 -14.628906 15.578125 -13.585938 15.578125 -12.234375 C 15.578125 -11.328125 15.351562 -10.554688 14.90625 -9.921875 C 14.457031 -9.285156 13.84375 -8.8125 13.0625 -8.5 Z M 4.421875 -15.03125 L 4.421875 -9.0625 L 9.671875 -9.0625 C 11.003906 -9.0625 12.03125 -9.316406 12.75 -9.828125 C 13.476562 -10.335938 13.84375 -11.078125 13.84375 -12.046875 C 13.84375 -13.015625 13.476562 -13.753906 12.75 -14.265625 C 12.03125 -14.773438 11.003906 -15.03125 9.671875 -15.03125 Z M 10.234375 -1.4375 C 11.710938 -1.4375 12.828125 -1.6875 13.578125 -2.1875 C 14.328125 -2.6875 14.703125 -3.472656 14.703125 -4.546875 C 14.703125 -6.597656 13.210938 -7.625 10.234375 -7.625 L 4.421875 -7.625 L 4.421875 -1.4375 Z M 10.234375 -1.4375 "/></g></g></g><g fill="#1fa8cf" fill-opacity="1"><g transform="translate(180.901288, 288.157392)"><g><path d="M 7.21875 0.140625 C 6 0.140625 4.828125 -0.0507812 3.703125 -0.4375 C 2.585938 -0.832031 1.722656 -1.351562 1.109375 -2 L 1.78125 -3.34375 C 2.382812 -2.75 3.175781 -2.265625 4.15625 -1.890625 C 5.144531 -1.523438 6.164062 -1.34375 7.21875 -1.34375 C 8.695312 -1.34375 9.800781 -1.613281 10.53125 -2.15625 C 11.269531 -2.695312 11.640625 -3.398438 11.640625 -4.265625 C 11.640625 -4.921875 11.441406 -5.441406 11.046875 -5.828125 C 10.648438 -6.222656 10.160156 -6.523438 9.578125 -6.734375 C 8.992188 -6.953125 8.1875 -7.1875 7.15625 -7.4375 C 5.914062 -7.75 4.925781 -8.050781 4.1875 -8.34375 C 3.445312 -8.632812 2.8125 -9.078125 2.28125 -9.671875 C 1.757812 -10.265625 1.5 -11.070312 1.5 -12.09375 C 1.5 -12.925781 1.71875 -13.679688 2.15625 -14.359375 C 2.601562 -15.046875 3.28125 -15.59375 4.1875 -16 C 5.09375 -16.40625 6.222656 -16.609375 7.578125 -16.609375 C 8.515625 -16.609375 9.429688 -16.476562 10.328125 -16.21875 C 11.234375 -15.96875 12.019531 -15.613281 12.6875 -15.15625 L 12.09375 -13.765625 C 11.40625 -14.222656 10.664062 -14.5625 9.875 -14.78125 C 9.09375 -15.007812 8.328125 -15.125 7.578125 -15.125 C 6.128906 -15.125 5.039062 -14.84375 4.3125 -14.28125 C 3.582031 -13.726562 3.21875 -13.015625 3.21875 -12.140625 C 3.21875 -11.484375 3.414062 -10.953125 3.8125 -10.546875 C 4.21875 -10.148438 4.722656 -9.84375 5.328125 -9.625 C 5.929688 -9.414062 6.742188 -9.1875 7.765625 -8.9375 C 8.972656 -8.644531 9.945312 -8.351562 10.6875 -8.0625 C 11.4375 -7.769531 12.066406 -7.328125 12.578125 -6.734375 C 13.097656 -6.148438 13.359375 -5.359375 13.359375 -4.359375 C 13.359375 -3.523438 13.132812 -2.765625 12.6875 -2.078125 C 12.25 -1.398438 11.566406 -0.859375 10.640625 -0.453125 C 9.710938 -0.0546875 8.570312 0.140625 7.21875 0.140625 Z M 7.21875 0.140625 "/></g></g></g><g fill="#1fa8cf" fill-opacity="1"><g transform="translate(202.871437, 288.157392)"><g><path d="M 2.6875 -16.46875 L 4.421875 -16.46875 L 4.421875 0 L 2.6875 0 Z M 2.6875 -16.46875 "/></g></g></g><g fill="#1fa8cf" fill-opacity="1"><g transform="translate(217.479956, 288.157392)"><g><path d="M 5.875 -14.96875 L 0.09375 -14.96875 L 0.09375 -16.46875 L 13.40625 -16.46875 L 13.40625 -14.96875 L 7.625 -14.96875 L 7.625 0 L 5.875 0 Z M 5.875 -14.96875 "/></g></g></g><g fill="#1fa8cf" fill-opacity="1"><g transform="translate(238.485802, 288.157392)"><g><path d="M 14.328125 -1.5 L 14.328125 0 L 2.6875 0 L 2.6875 -16.46875 L 13.984375 -16.46875 L 13.984375 -14.96875 L 4.421875 -14.96875 L 4.421875 -9.109375 L 12.9375 -9.109375 L 12.9375 -7.625 L 4.421875 -7.625 L 4.421875 -1.5 Z M 14.328125 -1.5 "/></g></g></g><g fill="#1fa8cf" fill-opacity="1"><g transform="translate(261.726004, 288.157392)"><g><path d="M 7.21875 0.140625 C 6 0.140625 4.828125 -0.0507812 3.703125 -0.4375 C 2.585938 -0.832031 1.722656 -1.351562 1.109375 -2 L 1.78125 -3.34375 C 2.382812 -2.75 3.175781 -2.265625 4.15625 -1.890625 C 5.144531 -1.523438 6.164062 -1.34375 7.21875 -1.34375 C 8.695312 -1.34375 9.800781 -1.613281 10.53125 -2.15625 C 11.269531 -2.695312 11.640625 -3.398438 11.640625 -4.265625 C 11.640625 -4.921875 11.441406 -5.441406 11.046875 -5.828125 C 10.648438 -6.222656 10.160156 -6.523438 9.578125 -6.734375 C 8.992188 -6.953125 8.1875 -7.1875 7.15625 -7.4375 C 5.914062 -7.75 4.925781 -8.050781 4.1875 -8.34375 C 3.445312 -8.632812 2.8125 -9.078125 2.28125 -9.671875 C 1.757812 -10.265625 1.5 -11.070312 1.5 -12.09375 C 1.5 -12.925781 1.71875 -13.679688 2.15625 -14.359375 C 2.601562 -15.046875 3.28125 -15.59375 4.1875 -16 C 5.09375 -16.40625 6.222656 -16.609375 7.578125 -16.609375 C 8.515625 -16.609375 9.429688 -16.476562 10.328125 -16.21875 C 11.234375 -15.96875 12.019531 -15.613281 12.6875 -15.15625 L 12.09375 -13.765625 C 11.40625 -14.222656 10.664062 -14.5625 9.875 -14.78125 C 9.09375 -15.007812 8.328125 -15.125 7.578125 -15.125 C 6.128906 -15.125 5.039062 -14.84375 4.3125 -14.28125 C 3.582031 -13.726562 3.21875 -13.015625 3.21875 -12.140625 C 3.21875 -11.484375 3.414062 -10.953125 3.8125 -10.546875 C 4.21875 -10.148438 4.722656 -9.84375 5.328125 -9.625 C 5.929688 -9.414062 6.742188 -9.1875 7.765625 -8.9375 C 8.972656 -8.644531 9.945312 -8.351562 10.6875 -8.0625 C 11.4375 -7.769531 12.066406 -7.328125 12.578125 -6.734375 C 13.097656 -6.148438 13.359375 -5.359375 13.359375 -4.359375 C 13.359375 -3.523438 13.132812 -2.765625 12.6875 -2.078125 C 12.25 -1.398438 11.566406 -0.859375 10.640625 -0.453125 C 9.710938 -0.0546875 8.570312 0.140625 7.21875 0.140625 Z M 7.21875 0.140625 "/></g></g></g></svg>